<svg viewBox="0 0 909 595" xmlns="http://www.w3.org/2000/svg" xml:space="preserve" style="fill-rule:evenodd;clip-rule:evenodd;stroke-linejoin:round;stroke-miterlimit:2;">
  <style>
        @media (prefers-color-scheme: light) {
            path { fill: #111; stroke: #666 }
        }
        @media (prefers-color-scheme: dark) {
            path { fill: #eee; stroke: #aaa }
        }
    </style>
  <path d="M130.6 61.8c1.8 1.1 4.4 3.8 4.4 9.5 0 4.7-5.4 7.2-10.3 8.5-9.9 1.1-16.7 3.5-16.7 6.3 0 3.9 13.2 7 29.5 7s29.5-3.1 29.5-7c0-2.8-6.9-5.2-16.8-6.3-5.3-1.3-11.3-3.8-11.2-8.5.1-5.8 2.9-8.4 4.6-9.5C149.7 59.1 154 53 154 46c0-9.4-7.6-17-17-17s-17 7.6-17 17c0 7.1 4.4 13.3 10.6 15.8m-6-21.1c1.2-3.2 3.8-5.7 6.9-7 .8-.3 1.6.1 2 .8.3.8-.1 1.6-.8 2-2.4 1-4.3 2.9-5.3 5.3-.3.8-1.2 1.2-1.9.8-.8-.2-1.2-1.1-.9-1.9" style="fill:#eee; stroke:#aaa; ; stroke-width:0.3" transform="translate(-178.164 -132.482)scale(4.56827)"/>
  <path d="M132.3 74.2c.2-.4.4-.7.5-1.1-32.4.6-57.8 7-57.8 14.9 0 8.3 28.2 15 63 15s63-6.7 63-15c0-8-26.4-14.6-59.7-15 .2.4.3.7.6 1.1 24.2.5 43.2 5.3 43.2 11.2 0 6.2-21.1 11.2-47.1 11.2s-47.1-5-47.1-11.2c0-5.7 18.1-10.5 41.4-11.1" style="fill:#eee; stroke:#aaa; stroke-width:0.3;" transform="translate(-178.164 -132.482)scale(4.56827)"/>
  <path d="M238 90.5c0-12.8-43.1-23.2-96.9-23.5-.1.4-.1.8-.1 1.2 43.3.3 78 8.7 78 19 0 10.5-36 19.1-80.5 19.1S58 97.8 58 87.3c0-10.1 33.2-18.4 75.1-19 0-.4-.1-.8-.1-1.3-52.4.7-94 11-94 23.5 0 12.6 42.3 23 95.3 23.5.5.8.7 1.8.7 2.8 0 5.7-2.6 8.3-4.4 9.5-6.2 2.5-10.6 8.6-10.6 15.8 0 9.4 7.6 17 17 17s17-7.6 17-17c0-7-4.3-13.1-10.4-15.7-1.7-1.1-4.5-3.7-4.6-9.5 0-1.1.3-2 .8-2.9 54.4-.2 98.2-10.6 98.2-23.5m-104.5 62.3c-.3.8-1.2 1.1-2 .8-3.2-1.3-5.7-3.8-6.9-7-.3-.8.1-1.6.8-1.9.8-.3 1.6.1 1.9.8.9 2.4 2.9 4.4 5.3 5.3.9.4 1.2 1.3.9 2" style="fill:#eee; stroke:#aaa; ; stroke-width:0.3;" transform="translate(-178.164 -132.482)scale(4.56827)"/>
</svg>

